<?xml version="1.0" encoding="iso-8859-1"?>
<!-- Uploaded to: SVG Repo, www.svgrepo.com, Generator: SVG Repo Mixer Tools -->
<svg height="800px" width="800px" version="1.1" id="Layer_1" xmlns="http://www.w3.org/2000/svg" xmlns:xlink="http://www.w3.org/1999/xlink" 
	 viewBox="0 0 511.999 511.999" xml:space="preserve">
<path style="fill:#EEEEEE;" d="M315.558,212.331c-6.972-6.972-6.974-18.285,0-25.259l63.037-63.036
	c6.974-6.975,18.284-6.975,25.259,0c24.401,24.401,24.402,63.893,0,88.296v-0.001v0.001
	C379.512,236.673,339.902,236.676,315.558,212.331z"/>
<path style="fill:#EEEEEE;" d="M403.854,124.036c-6.975-6.975-18.284-6.975-25.259,0l-31.077,31.077l56.767,56.767
	C428.244,187.444,428.106,148.289,403.854,124.036z"/>
<path style="fill:#36495E;" d="M231.215,103.81L204.78,77.375c-17.678-17.677-17.678-46.439,0-64.117l0,0
	c17.678-17.678,46.442-17.677,64.117,0l26.435,26.435c6.974,6.975,6.974,18.284-0.001,25.259l-38.856,38.858
	C249.504,110.779,238.189,110.785,231.215,103.81z"/>
<path style="fill:#2C3E50;" d="M295.331,64.951c6.975-6.975,6.975-18.284,0.001-25.259l-26.435-26.435
	c-17.528-17.529-45.953-17.667-63.666-0.43l71.111,71.111L295.331,64.951z"/>
<g>
	<path style="fill:#36495E;" d="M181.38,408.855l-48.259-95.48c-4.45-8.804-0.919-19.548,7.884-23.997
		c8.801-4.447,19.547-0.92,23.997,7.884l48.259,95.481C224.024,414.037,191.919,429.709,181.38,408.855z"/>
	<path style="fill:#36495E;" d="M146.759,259.499c-6.518-7.404-5.8-18.691,1.605-25.208l92.327-81.276
		c7.403-6.519,18.691-5.801,25.208,1.605c6.518,7.404,5.8,18.69-1.605,25.208l-92.327,81.276
		C164.566,267.618,153.278,266.904,146.759,259.499z"/>
</g>
<g>
	<path style="fill:#6A82A1;" d="M287.928,235.398L209.21,121.249c-4.893-7.096-4.021-16.674,2.074-22.769l78.718-78.718
		c6.094-6.095,15.674-6.968,22.769-2.074l114.147,78.718c9.172,6.325,10.38,19.444,2.49,27.334L315.261,237.888
		C307.395,245.755,294.277,244.605,287.928,235.398z"/>
	<path style="fill:#6A82A1;" d="M103.58,319.029c-38.717-23.734-33.679-81.985,9.331-98.181c21.668-8.16,45.487-2.246,60.68,15.067
		C215.209,282.923,156.919,351.729,103.58,319.029z"/>
	<path style="fill:#6A82A1;" d="M300.22,511.999H115.96c-42.613,0-10.215-129.693,92.131-129.693
		C310.298,382.307,343.079,511.999,300.22,511.999z"/>
</g>
<path style="fill:#36495E;" d="M429.409,123.739c7.89-7.89,6.684-21.008-2.49-27.334L312.772,17.688
	c-7.094-4.893-16.675-4.021-22.769,2.074L251.084,58.68l121.692,121.692L429.409,123.739z"/>
</svg>